<svg width="60" height="60" viewBox="0 0 60 60" fill="none" xmlns="http://www.w3.org/2000/svg">
<path d="M13 4H48V48H13V4Z" stroke="black" stroke-width="4"/>
<path d="M34.2542 40V38.7661C37.3077 38.5017 39 36.9153 39 34.3301C39 32.1267 37.7676 30.7656 35.3487 30.2661L34.2542 30.0507V27.0052C35.0452 27.1423 35.6246 27.818 35.6522 28.5916H38.7425C38.7149 26.2609 36.9858 24.6158 34.2542 24.3416V23H32.9298V24.3318C29.959 24.5668 28.2483 26.1532 28.2483 28.6895C28.2483 30.8341 29.4808 32.2442 31.8353 32.7926L32.9298 33.0472V36.2005C31.9457 36.0927 31.2375 35.4171 31.1915 34.5553H28C28.0092 37.0622 29.8211 38.6192 32.9298 38.7857V40H34.2542ZM35.8545 34.7316C35.8545 35.5639 35.2567 36.1221 34.2542 36.2005V33.2823C35.3303 33.4977 35.8545 33.9775 35.8545 34.7316ZM31.4766 28.3566C31.4766 27.6025 32.0744 27.0444 32.9298 26.9856V29.7667C31.9824 29.5611 31.4766 29.0714 31.4766 28.3566Z" fill="#FD665E"/>
</svg>
