<svg width="61" height="29" viewBox="0 0 61 29" fill="none" xmlns="http://www.w3.org/2000/svg">
<path d="M13.0814 12.68L8.76895 0.524902H6.36058L2.13049 12.3095C1.41003 14.3473 1.07039 14.7178 0 14.9134V15.4177H4.12717V14.9134C2.71714 14.6973 2.5113 14.2444 3.11854 12.3506L3.78753 10.3231H8.39843L9.16006 12.5874C9.71584 14.2753 9.45853 14.7178 8.15142 14.9134V15.4177H15.0678V14.9134C14.0283 14.7178 13.668 14.3267 13.0814 12.68ZM4.01396 9.60262L6.06211 3.32438L8.16171 9.60262H4.01396Z" fill="#FD665E"/>
<path d="M19.0826 5.05347L14.5334 5.60925V6.08269L15.0583 6.24736C15.6244 6.44292 15.717 6.58701 15.717 7.256V13.8018C15.717 14.5223 15.5523 14.7487 14.5334 14.9134V15.4177H20.4205V14.9134C19.2884 14.7281 19.1031 14.512 19.1031 13.6989V8.3058C19.556 7.88382 20.5955 7.61623 21.6144 7.61623C22.2011 7.61623 22.798 7.70886 23.0965 7.82207C23.22 7.57506 23.3332 7.14279 23.3332 6.70022C23.3332 5.77392 22.8907 5.03289 21.9644 5.03289C20.9249 5.03289 20.0603 5.90772 19.0723 7.95587L19.0826 5.05347Z" fill="#FD665E"/>
<path d="M28.6448 15.6236C30.4974 15.6236 32.0413 14.9134 32.8029 13.8224V13.3181C32.2883 13.8224 31.3929 14.1621 30.3945 14.1621C28.3464 14.1621 26.6893 12.5462 26.6893 9.71584C26.6893 7.35892 27.9244 5.85626 29.7873 5.85626C30.3431 5.85626 30.8371 5.99006 31.2282 6.23707C31.2076 6.22678 31.1973 6.22678 31.1767 6.22678C30.3842 6.22678 29.7358 6.88548 29.7358 7.71915C29.7358 8.55282 30.4048 9.21152 31.2488 9.21152C32.0721 9.21152 32.7617 8.56311 32.7617 7.6574C32.7617 6.17532 31.3517 4.99172 28.8713 4.99172C25.5983 4.99172 23.19 7.17366 23.19 10.3231C23.19 13.5857 25.6086 15.6236 28.6448 15.6236Z" fill="#FD665E"/>
<path d="M37.5278 0L32.9581 0.555779V1.02922L33.483 1.20419C34.0594 1.39974 34.1417 1.54383 34.1417 2.21282V13.7813C34.1417 14.5223 33.9564 14.7384 32.9581 14.9134V15.4177H38.557V14.9134C37.6616 14.7487 37.5278 14.5635 37.5278 13.843V7.36921C37.8366 6.79285 38.485 6.40175 39.329 6.40175C40.492 6.40175 41.1713 7.09132 41.1713 8.47048V13.843C41.1713 14.5635 41.0169 14.759 40.142 14.9134V15.4177H45.741V14.9134C44.7221 14.7384 44.5471 14.5223 44.5471 13.7813V8.27493C44.5471 6.05181 43.1371 4.99172 41.0478 4.99172C39.3084 4.99172 38.0424 5.78422 37.5072 6.94723L37.5278 0Z" fill="#FD665E"/>
<path d="M14.1792 17.4318L9.63 17.9875V18.461L10.1549 18.6256C10.7313 18.8212 10.8136 18.9653 10.8136 19.6343V26.1595C10.8136 26.9006 10.6283 27.1167 9.63 27.2917V27.796H15.229V27.2917C14.3335 27.1373 14.1997 26.9417 14.1997 26.2213V19.7475C14.5085 19.1814 15.0952 18.78 15.9288 18.78C17.0095 18.78 17.627 19.4593 17.627 20.8282V26.2213C17.627 26.9417 17.5035 27.1373 16.6081 27.2917V27.796H22.0424V27.2917C21.147 27.1373 21.0132 26.9417 21.0132 26.2213V20.4782C21.0132 20.1901 20.9926 19.943 20.9411 19.696C21.2602 19.1403 21.8777 18.78 22.7114 18.78C23.8024 18.78 24.4405 19.4593 24.4405 20.8282V26.2213C24.4405 26.9417 24.3067 27.127 23.4113 27.2917V27.796H29.0102V27.2917C28.0016 27.1167 27.8266 26.9006 27.8266 26.1595V20.6326C27.8266 18.461 26.4783 17.37 24.4302 17.37C22.7114 17.37 21.3837 18.1934 20.8794 19.3564C20.5089 18.0699 19.2944 17.37 17.6785 17.37C15.9288 17.37 14.6732 18.1934 14.1792 19.3461V17.4318Z" fill="#FD665E"/>
<path d="M35.0011 28.0018C38.3152 28.0018 40.7956 25.7993 40.7956 22.6396C40.7956 19.4181 38.3358 17.37 35.0423 17.37C31.7385 17.37 29.258 19.5622 29.258 22.7219C29.258 25.9537 31.7179 28.0018 35.0011 28.0018ZM35.0731 27.3226C33.694 27.3226 32.8397 25.5523 32.8397 22.6087C32.8397 19.7681 33.5808 18.0493 34.9805 18.0493C36.3494 18.0493 37.2036 19.8093 37.2036 22.7528C37.2036 25.5935 36.4626 27.3226 35.0731 27.3226Z" fill="#FD665E"/>
<path d="M41.7536 19.7681L44.8413 27.8166H46.6939L49.6374 20.1901C50.2755 18.533 50.5637 18.2448 51.3871 18.0802V17.5656H47.9495V18.0802C49.1125 18.2448 49.2463 18.5742 48.7626 20.1077L47.1364 24.9862L45.5103 20.0871C45.0368 18.5742 45.1706 18.2345 46.3645 18.0802V17.5656H40.1789V18.0802C40.992 18.2551 41.2699 18.5433 41.7536 19.7681Z" fill="#FD665E"/>
<path d="M50.5851 22.7014C50.5851 25.9743 53.0038 28.0018 56.0709 28.0018C57.9852 28.0018 59.5496 27.3123 60.301 26.1801L60.2907 25.6758C59.7761 26.2007 58.9115 26.5815 57.9029 26.5815C55.8239 26.5815 54.2903 25.0686 54.0227 22.3926H60.4348C60.4554 22.2176 60.4862 21.95 60.4862 21.6824C60.4862 19.13 58.7777 17.37 55.9268 17.37C52.7156 17.37 50.5851 19.5725 50.5851 22.7014ZM53.9713 21.5075C53.9713 19.2946 54.6814 18.0493 55.9268 18.0493C57.0178 18.0493 57.5118 19.2226 57.5118 21.0546C57.5118 21.3531 57.5118 21.5692 57.5015 21.7648L53.9816 21.8059C53.9713 21.703 53.9713 21.6104 53.9713 21.5075Z" fill="#FD665E"/>
</svg>
