<svg width="58" height="46" viewBox="0 0 58 46" fill="none" xmlns="http://www.w3.org/2000/svg">
<path d="M24.5312 5.99219C12.0859 7.89062 0.765625 17.1719 0.765625 30.3906C0.765625 39.5312 6.03906 45.7188 13.6328 45.7188C21.6484 45.7188 26.3594 38.8984 26.3594 30.5312C19.6797 30.25 15.1094 26.1016 15.1094 20.1953C15.1094 14.3594 19.5391 10.4922 25.6562 9.22656L24.5312 5.99219ZM55.9609 5.99219C43.5156 7.89062 32.1953 17.1719 32.1953 30.3906C32.1953 39.5312 37.4688 45.7188 45.0625 45.7188C53.0781 45.7188 57.7891 38.8984 57.7891 30.5312C51.1094 30.25 46.4688 26.1016 46.4688 20.1953C46.4688 14.3594 50.8984 10.4922 57.0156 9.22656L55.9609 5.99219Z" fill="#FD665E"/>
</svg>
